<svg width="728" height="617" viewBox="0 0 728 617" fill="none" xmlns="http://www.w3.org/2000/svg">
<line x1="0.5" y1="0.5" x2="0.49999" y2="224.5" stroke="black" stroke-linecap="round" stroke-dasharray="0.01 20"/>
<line x1="31.5" y1="0.5" x2="31.5" y2="224.5" stroke="black" stroke-linecap="round" stroke-dasharray="0.01 20"/>
<line x1="62.5" y1="0.5" x2="62.5" y2="224.5" stroke="black" stroke-linecap="round" stroke-dasharray="0.01 20"/>
<line x1="93.5" y1="0.5" x2="93.5" y2="224.5" stroke="black" stroke-linecap="round" stroke-dasharray="0.01 20"/>
<line x1="124.5" y1="0.5" x2="124.5" y2="224.5" stroke="black" stroke-linecap="round" stroke-dasharray="0.01 20"/>
<line x1="155.5" y1="0.5" x2="155.5" y2="224.5" stroke="black" stroke-linecap="round" stroke-dasharray="0.01 20"/>
<line x1="186.5" y1="0.5" x2="186.5" y2="224.5" stroke="black" stroke-linecap="round" stroke-dasharray="0.01 20"/>
<line x1="217.5" y1="0.5" x2="217.5" y2="224.5" stroke="black" stroke-linecap="round" stroke-dasharray="0.01 20"/>
<line x1="510.5" y1="392.5" x2="510.5" y2="616.5" stroke="black" stroke-linecap="round" stroke-dasharray="0.01 20"/>
<line x1="541.5" y1="392.5" x2="541.5" y2="616.5" stroke="black" stroke-linecap="round" stroke-dasharray="0.01 20"/>
<line x1="572.5" y1="392.5" x2="572.5" y2="616.5" stroke="black" stroke-linecap="round" stroke-dasharray="0.01 20"/>
<line x1="603.5" y1="392.5" x2="603.5" y2="616.5" stroke="black" stroke-linecap="round" stroke-dasharray="0.01 20"/>
<line x1="634.5" y1="392.5" x2="634.5" y2="616.5" stroke="black" stroke-linecap="round" stroke-dasharray="0.01 20"/>
<line x1="665.5" y1="392.5" x2="665.5" y2="616.5" stroke="black" stroke-linecap="round" stroke-dasharray="0.01 20"/>
<line x1="696.5" y1="392.5" x2="696.5" y2="616.5" stroke="black" stroke-linecap="round" stroke-dasharray="0.01 20"/>
<line x1="727.5" y1="392.5" x2="727.5" y2="616.5" stroke="black" stroke-linecap="round" stroke-dasharray="0.01 20"/>
</svg>
