<svg width="120" height="120" viewBox="0 0 120 120" fill="none" xmlns="http://www.w3.org/2000/svg">
<path fill-rule="evenodd" clip-rule="evenodd" d="M31.4669 76.4796V83.6796H38.6267H45.7868V76.4796V69.2796H38.6267H31.4669V76.4796Z" fill="#EC2C7C"/>
<path fill-rule="evenodd" clip-rule="evenodd" d="M31.3068 39.72V67.3602H38.5869H45.867V59.9127V52.4655L54.4869 52.5039C63.9048 52.5459 65.4918 52.608 68.2266 53.0412C73.0056 53.7981 75.8658 56.6997 76.284 61.2132C76.7772 66.5394 73.7598 70.4082 68.5278 71.157C66.72 71.4162 65.271 71.457 56.5668 71.496L47.787 71.5356V77.6076V83.6802L51.5268 83.679C69.1764 83.6742 74.5806 83.3376 78.4668 82.0008C90.2484 77.9478 95.3034 61.9974 87.921 52.1667C85.7844 49.3209 82.6686 47.1783 78.7866 45.8847C78.435 45.7674 78.093 45.6534 78.0276 45.6309C77.9574 45.6072 78.27 45.402 78.7878 45.132C87.5598 40.5582 90.5592 29.1771 85.1688 20.9199C82.1004 16.2204 77.7186 13.47 71.9868 12.6456C68.3544 12.1233 66.561 12.081 47.8869 12.0804L31.3068 12.0801V39.72ZM64.6668 24.159C67.5528 24.303 69.0234 24.6774 70.5408 25.6551C74.559 28.2441 74.8098 35.145 70.9962 38.1933C68.3556 40.3038 66.9996 40.4778 53.1669 40.4793L45.867 40.4799V32.2272V23.9745L54.447 24.0258C59.166 24.054 63.765 24.114 64.6668 24.159ZM91.4142 85.4514C90.4746 85.6146 89.2806 86.7798 88.8036 88.0002C88.071 89.8728 87.7842 91.9116 87.5604 96.8256C87.5172 97.785 87.4698 98.1888 87.396 98.2344C87.2772 98.3076 85.7028 98.5884 84.6012 98.733C84.0606 98.8038 83.8368 98.8662 83.7852 98.9628C83.6982 99.126 83.8962 99.4404 84.0864 99.4404C84.8112 99.4404 85.8138 99.903 86.0382 100.341C86.9928 102.203 85.044 105.738 83.3244 105.263C81.4026 104.733 81.6834 98.6298 83.6556 98.067C84.0648 97.9494 84.1866 97.8612 84.1866 97.68C84.1866 96.8784 82.4802 97.7484 82.077 98.7564C80.7696 102.022 81.5706 105.94 83.544 105.931C86.328 105.917 88.2552 100.538 85.9068 99.3366L85.6668 99.2142L85.8666 99.1698C86.3124 99.0726 87.3282 98.88 87.3954 98.88C87.525 98.88 87.4806 100.049 87.3468 100.16C87.1968 100.285 87.1902 100.609 87.336 100.665C87.4164 100.696 87.4608 100.987 87.504 101.769C87.5856 103.241 87.7458 104.405 87.8784 104.489C88.1814 104.681 88.3254 104.452 88.4634 103.56C88.6716 102.213 88.9926 101.2 89.2104 101.2C89.244 101.2 89.46 101.518 89.6904 101.907C89.9208 102.296 90.195 102.695 90.3006 102.794C90.7068 103.176 91.0266 102.742 90.642 102.332C90.5328 102.215 90.3324 101.896 90.1956 101.623C89.5212 100.272 88.8816 100.191 88.392 101.395C88.1796 101.918 88.1052 101.822 88.1142 101.04L88.119 100.6L89.2818 99.84C94.188 96.6336 96.0426 93.3876 95.3142 89.28C94.8744 86.7996 93.1884 85.1442 91.4142 85.4514ZM92.7894 86.301C94.5168 87.1824 95.418 90.504 94.5858 92.9232C93.8232 95.1384 91.3626 97.9812 88.8702 99.5256C88.0434 100.038 88.0266 100.036 88.0278 99.42C88.0296 98.8218 88.0638 98.7564 88.4268 98.6628C88.8666 98.5482 88.8432 98.1312 88.395 98.0946L88.083 98.0688L88.1364 96.8142C88.3914 90.7938 89.04 87.9504 90.4488 86.6772C91.1178 86.0724 92.0484 85.923 92.7894 86.301ZM26.6595 86.8716C23.2317 87.9684 20.7504 96.2682 21.8736 102.88C22.0851 104.124 22.0722 104.093 22.3737 104.065C22.6866 104.034 22.6872 104.008 22.3932 102.604C20.9505 95.7108 24.8649 85.9524 28.4901 87.4026C30.8577 88.35 31.0185 93.5694 28.8156 97.9698C28.3296 98.94 28.263 99.123 28.3413 99.2694C28.4559 99.4842 28.7682 99.4926 29.0547 99.2892C29.8839 98.7 31.446 98.3358 32.0532 98.589C33.2823 99.1026 33.195 101.625 31.8831 103.507C31.8222 103.595 31.6392 103.56 30.9087 103.324C27.2532 102.142 24.3765 103.545 25.4601 105.981C26.9958 109.433 33.5469 104.941 33.5469 100.436C33.5469 98.2932 32.2668 97.4202 30.1947 98.1498L29.3142 98.4606L29.5068 98.0802C30.6318 95.8602 31.1889 91.8252 30.6981 89.4498C30.2766 87.4092 28.5081 86.28 26.6595 86.8716ZM69.8142 88.4952C69.7068 88.6614 69.6834 95.5476 69.7848 97.1202C69.9132 99.1044 69.9288 99.1926 70.1634 99.2514C70.515 99.3396 70.536 99.225 70.419 97.8654C70.3458 97.0128 70.3098 95.2698 70.3086 92.52L70.3068 88.44L70.0944 88.4154C69.9774 88.4016 69.8514 88.4376 69.8142 88.4952ZM48.0231 94.692C47.8986 94.7256 47.6997 95.613 47.5512 96.8004C47.3265 98.5968 45.4245 103.049 44.7282 103.41C44.6076 103.472 44.487 103.612 44.4594 103.721C44.2956 104.374 43.7757 103.015 43.3905 100.927C43.0533 99.0972 42.8325 98.7408 42.1452 98.913C41.6733 99.0318 40.6674 101.04 40.0731 103.052L39.8754 103.72L39.8712 100.786C39.8667 97.6404 39.8631 97.6002 39.588 97.6002C39.2742 97.6002 39.2499 97.7418 39.1986 99.8802C39.1167 103.294 39.3021 105.055 39.7557 105.169C40.0563 105.245 40.0764 105.204 40.6716 103.308C41.2764 101.381 41.4087 101.05 41.9382 100.139C42.4527 99.2526 42.5166 99.3372 42.9096 101.429C43.2495 103.24 43.5189 103.956 44.0505 104.467C44.349 104.753 44.6838 104.792 44.7306 104.546C44.7447 104.473 44.8764 104.285 45.0237 104.129C45.6471 103.468 46.59 101.821 47.1963 100.333C47.4621 99.6804 47.5464 99.5376 47.577 99.6876C47.8095 100.825 48.0417 101.604 48.4785 102.71C48.9834 103.99 49.035 104.24 48.7941 104.24C48.2637 104.24 46.6008 104.976 45.8463 105.545C44.652 106.445 44.7765 107.319 46.2039 108.052C48.1437 109.047 50.6142 106.76 49.824 104.701C49.7865 104.603 49.8984 104.551 50.3619 104.45C51.5268 104.194 51.4377 104.189 51.5412 104.503C52.0443 106.027 53.5413 106.394 54.8415 105.311C56.9625 103.546 57.42 100.234 55.6668 99.3366L55.4268 99.2142L55.6269 99.1698C56.1132 99.0624 58.3023 98.64 58.3722 98.64C58.4211 98.64 58.4298 99.2328 58.3956 100.26C58.2996 103.145 58.518 105.059 58.9557 105.169C59.2563 105.245 59.2764 105.204 59.8716 103.308C60.4764 101.381 60.6084 101.05 61.1382 100.139C61.6524 99.2526 61.7166 99.3372 62.1096 101.429C62.4492 103.24 62.7186 103.956 63.2502 104.467C63.8124 105.006 64.2216 104.573 63.6822 104.01C63.1554 103.461 62.9514 102.885 62.5902 100.927C62.253 99.0972 62.0322 98.7408 61.3452 98.913C60.873 99.0318 59.8674 101.04 59.2731 103.052L59.0754 103.72L59.0712 100.786C59.0688 99.1728 59.0451 97.7958 59.0184 97.7268C58.9149 97.4568 58.4268 97.6302 58.4268 97.9362C58.4268 98.0394 58.3647 98.0802 58.2069 98.082C58.086 98.0832 57.4803 98.1876 56.8611 98.3136C56.2419 98.4396 55.2582 98.6082 54.675 98.688C53.8779 98.7966 53.5977 98.865 53.5449 98.964C53.4582 99.126 53.6574 99.4404 53.8464 99.4404C54.5715 99.4404 55.5738 99.903 55.7985 100.341C56.7528 102.203 54.804 105.738 53.0847 105.263C51.1626 104.733 51.4434 98.6298 53.4156 98.067C53.949 97.9146 54.1086 97.674 53.8296 97.4424C53.6541 97.2966 52.7244 97.6284 52.3434 97.9728C51.7014 98.553 51.2955 100.163 51.2586 102.279L51.2349 103.638L50.5308 103.817C49.6566 104.039 49.6497 104.039 49.5831 103.82C49.5534 103.721 49.3182 103.112 49.0611 102.466C48.1236 100.113 47.9118 98.4498 48.2883 96.4002C48.5082 95.202 48.525 94.9098 48.3828 94.7676C48.2526 94.6374 48.2376 94.6344 48.0231 94.692ZM35.8935 96.4362C34.4244 97.0752 33.4797 100.682 34.1112 103.24C34.5834 105.152 35.9781 106.118 37.1724 105.361C37.8414 104.937 39.0012 103.711 38.9718 103.458C38.9229 103.034 38.6943 103.145 37.8804 103.982C36.8631 105.03 36.1179 105.31 35.5731 104.848C35.2545 104.579 34.8435 103.794 34.947 103.653C34.9908 103.594 35.2068 103.321 35.427 103.049C37.8801 100.012 38.2035 95.4318 35.8935 96.4362ZM36.6198 97.206C37.3299 98.0502 36.6348 100.387 35.0301 102.551L34.71 102.983L34.6497 102.712C34.5414 102.226 34.5711 100.156 34.6953 99.5202C35.0355 97.7772 36.0621 96.5436 36.6198 97.206ZM73.3896 97.6746C73.284 97.872 73.2816 101.294 73.386 102.6C73.6686 106.131 74.3502 106.244 74.8218 102.84C75.0342 101.308 75.519 99.4404 75.705 99.4404C75.7368 99.4404 75.7866 99.8322 75.8154 100.312C75.9198 102.029 76.1982 103.657 76.5924 104.853C77.0418 106.215 77.6712 105.118 78.6204 101.32C78.8184 100.528 79.0512 99.6822 79.1376 99.4404L79.2948 99L79.3032 99.48C79.404 105.241 79.9968 107.284 81.5766 107.314C82.1382 107.324 82.0662 106.909 81.4674 106.681C80.493 106.309 80.1114 104.828 79.941 100.76C79.8348 98.2284 79.8348 98.2272 79.428 98.1306C78.906 98.007 78.8166 98.217 77.8242 101.897C77.148 104.408 77.1174 104.486 76.9974 104.037C76.7184 102.988 76.4838 101.378 76.4328 100.16C76.281 96.5088 74.721 98.3694 74.2188 102.8C74.1048 103.807 74.0184 102.928 73.9716 100.28C73.9452 98.7696 73.8942 97.6788 73.8468 97.62C73.7274 97.4706 73.4832 97.4994 73.3896 97.6746ZM93.0168 100.275C92.1192 100.666 92.355 101.699 93.4122 102.004C94.5696 102.338 94.827 102.596 94.413 103.01C93.9888 103.434 93.1656 103.296 92.943 102.763C92.7828 102.38 92.2908 102.325 92.3838 102.7C92.7258 104.089 95.0652 104.02 95.0664 102.622C95.067 102.129 94.7634 101.87 93.9066 101.629C93.0966 101.401 92.9868 101.335 92.9868 101.083C92.9868 100.554 93.9534 100.396 94.3416 100.86C94.5618 101.124 94.9872 101.23 94.9866 101.02C94.9848 100.376 93.807 99.9312 93.0168 100.275ZM95.3868 100.44C95.3868 100.634 95.403 100.64 95.9466 100.64H96.507V102.12V103.6H96.747H96.987V102.12V100.64H97.5468C98.091 100.64 98.1066 100.634 98.1066 100.44V100.24H96.747H95.3868V100.44ZM29.0895 103.522C29.7642 103.599 31.2579 104.016 31.341 104.15C31.407 104.257 30.6336 105.067 30.0105 105.544C28.3197 106.837 26.9133 106.916 26.1267 105.761C25.3101 104.561 26.1171 103.706 28.3068 103.45C28.3509 103.445 28.7031 103.477 29.0895 103.522ZM70.4802 104.213C70.296 104.398 70.6476 104.88 70.9668 104.88C71.1972 104.88 71.274 104.604 71.1114 104.356C70.9878 104.167 70.6116 104.082 70.4802 104.213ZM49.284 105.494C49.3692 106.733 48.4881 107.603 47.1525 107.599C46.4643 107.596 45.7068 107.141 45.7068 106.731C45.7068 106.319 46.9965 105.443 48.2199 105.025C49.2459 104.675 49.2273 104.666 49.284 105.494Z" fill="#040404"/>
</svg>
